# xmcd
#
# Track frame offsets:
#	150
#	17859
#	33337
#	53794
#	73016
#	94827
#	109114
#	126166
#	143060
#	157425
#	172687
#	192834
#	212535
#	229094
#	248205
#	264646
#	281881
#	300641
#
# Disc length: 4255 seconds
#
# Revision: 3
# Processed by: cddbd v1.5.2PL0 Copyright (c) Steve Scherf et al.
# Submitted via: EasyCDDAExtractor 15.3.0.1
#
DISCID=05109d12
DTITLE=Varios Artistas - Radio Hits 2
DYEAR=2002
DGENRE=Latin
TTITLE0=Enrique Iglesias - Mentiroso
TTITLE1=Juanes - A Dios Le Pido
TTITLE2=Alexandre Pires - Usted Se Me Llevo La Vida
TTITLE3=Cristian - Yo Queria
TTITLE4=Paulina Rubio - Si Tu Te Vas
TTITLE5=Cabas - Mi Bombon
TTITLE6=Patricia Manterola - Que El Ritmo No Pare
TTITLE7=Manny Manuel - Se Me Sube
TTITLE8=La Mosca Tse Tse - Para No Verte Mas
TTITLE9=Conchi Cortes - Toma Que Toma - Radio Mix
TTITLE10=Pablo Montero - Hay Otra En Tu Lugar
TTITLE11=Luis Fonsi - Quisiera Poder Olvidarme De Ti
TTITLE12=Carlos Ponce - Mujer Con Pantalones
TTITLE13=Franco De Vita - Como Decirte No
TTITLE14=Sandy and Junior - El Amor No Fallara
TTITLE15=Alih Jey - It's O.K.
TTITLE16=Rosana - Pa' Ti No Estoy
TTITLE17=Zucchero - Baila Morena
EXTD=YEAR: 2002
EXTT0=
EXTT1=
EXTT2=
EXTT3=
EXTT4=
EXTT5=
EXTT6=
EXTT7=
EXTT8=
EXTT9=
EXTT10=
EXTT11=
EXTT12=
EXTT13=
EXTT14=
EXTT15=
EXTT16=
EXTT17=
PLAYORDER=
